<?xml version="1.0" encoding="UTF-8"?>
<svg width="43.3968836px" height="53.6461394px" viewBox="0 0 43.3968836 53.6461394" version="1.1" xmlns="http://www.w3.org/2000/svg" xmlns:xlink="http://www.w3.org/1999/xlink">
    <title>A4B2BA29-FE7D-4D09-BCED-BA6D836F65BB</title>
    <defs>
        <linearGradient x1="36.8490345%" y1="75.2836799%" x2="61.0693653%" y2="23.2571519%" id="linearGradient-1">
            <stop stop-color="#FFE600" offset="0%"></stop>
            <stop stop-color="#B38C00" offset="100%"></stop>
        </linearGradient>
        <linearGradient x1="35.8175631%" y1="76.5383018%" x2="60.1765172%" y2="30.1299625%" id="linearGradient-2">
            <stop stop-color="#FFE600" offset="0%"></stop>
            <stop stop-color="#B38C00" offset="100%"></stop>
        </linearGradient>
        <linearGradient x1="35.568907%" y1="75.8387551%" x2="58.9886267%" y2="29.2177862%" id="linearGradient-3">
            <stop stop-color="#FFE600" offset="0%"></stop>
            <stop stop-color="#B38C00" offset="100%"></stop>
        </linearGradient>
        <linearGradient x1="63.1498322%" y1="75.2836799%" x2="38.929545%" y2="23.2572149%" id="linearGradient-4">
            <stop stop-color="#FFE600" offset="0%"></stop>
            <stop stop-color="#B38C00" offset="100%"></stop>
        </linearGradient>
        <linearGradient x1="64.1870242%" y1="76.5383018%" x2="39.8280701%" y2="30.1298826%" id="linearGradient-5">
            <stop stop-color="#FFE600" offset="0%"></stop>
            <stop stop-color="#B38C00" offset="100%"></stop>
        </linearGradient>
        <linearGradient x1="64.4390973%" y1="75.8388255%" x2="41.0171326%" y2="29.2177862%" id="linearGradient-6">
            <stop stop-color="#FFE600" offset="0%"></stop>
            <stop stop-color="#B38C00" offset="100%"></stop>
        </linearGradient>
    </defs>
    <g id="Winds-Web_app" stroke="none" stroke-width="1" fill="none" fill-rule="evenodd">
        <g id="Prepaid_Card_number_hidden" transform="translate(-338.242424, -654.181818)">
            <g id="Group-19" transform="translate(314.000000, 583.000000)">
                <g id="Group-11" transform="translate(0.000000, 53.000000)">
                    <g id="ic_winds_logo_search_bar" transform="translate(24.242424, 18.181818)">
                        <g id="Group" transform="translate(9.160413, 0.000000)">
                            <path d="M14.1427773,12.8405805 C14.1427773,13.7210065 13.4296947,14.4340891 12.5492687,14.4340891 C11.6688428,14.4340891 10.9557601,13.7210065 10.9557601,12.8405805 C10.9557601,11.9601545 11.6688428,11.2470719 12.5492687,11.2470719 C13.4284459,11.2470719 14.1427773,11.9601545 14.1427773,12.8405805 Z" id="Path" fill="#D6B46D"></path>
                            <path d="M8.30074505,1.84961725 C7.78622661,2.13934609 7.66009466,2.89988428 8.01975804,3.54178351 L11.4865134,9.71100955 C11.6513591,10.0044849 11.8911347,10.2230303 12.1533893,10.3479135 C12.1608822,10.3516599 12.1671264,10.3566553 12.1746194,10.3604018 C12.3157373,10.4353316 12.4705924,10.4678012 12.6279451,10.4628059 C12.7852978,10.4653036 12.9401529,10.4303363 13.0787732,10.3516599 C13.0862661,10.3479135 13.0925103,10.3429181 13.1000033,10.3379228 C13.3585113,10.2092932 13.5932916,9.98575241 13.753142,9.68853059 L17.0937654,3.45061883 C17.4409405,2.80122661 17.2985737,2.04318609 16.77906,1.76469673 C16.2582974,1.48620738 15.5489612,1.78842452 15.2005373,2.43656791 L12.5942267,7.29951653 L9.89175598,2.49026765 C9.53084377,1.84836842 8.8152635,1.56113725 8.30074505,1.84961725 L8.30074505,1.84961725 Z M14.2351908,1.68102504 C14.2451815,2.61889726 13.4921363,3.38692844 12.5542641,3.39691909 C11.6163918,3.40690974 10.8483607,2.65386453 10.83837,1.71599232 C10.8296282,0.778120098 11.5814246,0.0100889202 12.5205456,9.8270691e-05 C13.4584178,-0.00989237877 14.226449,0.743152825 14.2351908,1.68102504 Z" id="Shape" fill="#EE7F1A"></path>
                            <path d="M0.436855094,13.5823862 C0.539259251,14.1643415 1.21487692,14.5364932 1.93919901,14.4091125 L8.90892584,13.1865067 C9.24111493,13.1278117 9.52584844,12.9742054 9.73065676,12.7693971 C9.73690091,12.7644018 9.7443939,12.7594065 9.74938923,12.7544111 C9.86677936,12.6470117 9.94920221,12.5108891 9.99540897,12.3610293 C10.0503575,12.2124184 10.0678412,12.0563145 10.0403669,11.8989618 C10.0391181,11.89022 10.0366204,11.882727 10.0341227,11.875234 C9.99790663,11.5880028 9.86553053,11.2920298 9.63824325,11.0435124 L4.86396164,5.82090041 C4.36692683,5.27765885 3.60513981,5.16026872 3.16929772,5.55864587 C2.73345564,5.95702301 2.78340889,6.72755185 3.27919487,7.26954459 L7.00320945,11.3407342 L1.56954498,12.2935924 C0.84397406,12.4209732 0.335699768,13.0016797 0.436855094,13.5823862 L0.436855094,13.5823862 Z M2.24766031,7.92767862 C3.13557928,8.22989577 3.61013513,9.19524227 3.30791798,10.0831612 C3.00570084,10.9710802 2.04035433,11.4456361 1.15243536,11.1434189 C0.264516391,10.8412018 -0.21128829,9.87585526 0.0909288567,8.98793629 C0.394394834,8.10001732 1.35974134,7.62546147 2.24766031,7.92767862 Z" id="Shape" fill="#0095DA"></path>
                            <path d="M8.95763026,24.3235832 C9.53833676,24.4309827 10.1227897,23.9277037 10.2576635,23.2046305 L11.548955,16.247392 C11.6101477,15.9164517 11.5664386,15.5942533 11.445302,15.3319987 C11.4428043,15.3245057 11.4403066,15.3157639 11.437809,15.3082709 C11.3778651,15.1609088 11.2792074,15.0360257 11.1555731,14.9398657 C11.0356853,14.8374616 10.8945674,14.7650293 10.7384635,14.7363062 C10.7297217,14.7338086 10.7222287,14.7338086 10.7134869,14.7338086 C10.4324999,14.6676205 10.1090526,14.6876018 9.79559598,14.8137338 L3.23423694,17.4625047 C2.55237512,17.7384964 2.1752281,18.4103676 2.39502239,18.9586045 C2.61606551,19.5055925 3.35537357,19.7291333 4.03723539,19.4531416 L9.15369675,17.3888237 L8.14713882,22.8137463 C8.01226505,23.5355707 8.37692376,24.2149349 8.95763026,24.3235832 L8.95763026,24.3235832 Z M4.29324579,20.6495219 C4.88768943,19.9227021 5.95668892,19.8153026 6.68350867,20.4097463 C7.41032842,21.0029411 7.51647907,22.0731894 6.92328426,22.8000092 C6.32884062,23.5268289 5.25859229,23.6342284 4.53302137,23.0397848 C3.80620163,22.4453411 3.69880214,21.3750928 4.29324579,20.6495219 Z" id="Shape" fill="#81BA31"></path>
                            <path d="M22.1415411,5.5399134 C21.7294268,5.11655963 20.9613956,5.19024067 20.4343888,5.70351028 L15.3616366,10.6376423 C15.1206121,10.8724225 14.9707524,11.1609026 14.9183015,11.4443872 C14.9158038,11.4518802 14.9133062,11.4593732 14.9108085,11.468115 C14.8745924,11.6229701 14.8833342,11.7815717 14.9282921,11.9314314 C14.9670059,12.0850376 15.0394381,12.2249067 15.1518329,12.3385504 C15.1580771,12.3447945 15.1643212,12.3497898 15.1705654,12.3547852 C15.3616366,12.570833 15.6376283,12.7419228 15.9660709,12.8193504 L22.8533748,14.4465774 C23.5702039,14.6151696 24.2658029,14.2842293 24.4019255,13.709767 C24.5380481,13.1353047 24.0634922,12.5271239 23.3466631,12.3572828 L17.9766891,11.0897192 L21.9317374,7.2420703 C22.4587442,6.72880068 22.5524065,5.96326717 22.1415411,5.5399134 L22.1415411,5.5399134 Z M23.8274631,11.2333348 C22.9233094,11.483101 21.9879348,10.9535966 21.7381686,10.0494428 C21.4884023,9.14528902 22.0191556,8.20991447 22.9220605,7.96014823 C23.8262143,7.71038199 24.7615889,8.23988642 25.0126039,9.14404019 C25.2623702,10.048194 24.7316169,10.9835685 23.8274631,11.2333348 Z" id="Shape" fill="#767676"></path>
                            <path d="M16.1696303,24.3235832 C15.5889238,24.4309827 15.0044708,23.9277037 14.8695971,23.2046305 L13.5783056,16.247392 C13.5171129,15.9164517 13.560822,15.5942533 13.6819586,15.3319987 C13.6844563,15.3245057 13.6869539,15.3157639 13.6894516,15.3082709 C13.7493955,15.1609088 13.8468043,15.0360257 13.9716875,14.9398657 C14.0915752,14.8374616 14.2314443,14.7650293 14.3887971,14.7363062 C14.3975389,14.7338086 14.4050319,14.7338086 14.4137737,14.7338086 C14.6947607,14.6676205 15.018208,14.6876018 15.3316646,14.8137338 L21.8930236,17.4625047 C22.5761343,17.7384964 22.9520325,18.4103676 22.7322382,18.9586045 C22.5111951,19.5055925 21.771887,19.7291333 21.0900252,19.4531416 L15.9735638,17.3888237 L16.9801218,22.8137463 C17.1149955,23.5355707 16.7503368,24.2149349 16.1696303,24.3235832 L16.1696303,24.3235832 Z M20.8340148,20.6495219 C20.24082,19.9227021 19.1705717,19.8153026 18.4437519,20.4097463 C17.718181,21.0029411 17.6107815,22.0731894 18.2039763,22.8000092 C18.79842,23.5268289 19.8686683,23.6342284 20.5942392,23.0397848 C21.321059,22.4453411 21.4272096,21.3750928 20.8340148,20.6495219 Z" id="Shape" fill="#E21E24"></path>
                        </g>
                        <g id="Group" transform="translate(0.425851, 24.941755)">
                            <path d="M6.2354141,1.27505664 C10.7074786,5.93694344 15.5841643,13.5985228 17.517355,19.8189509 L15.6166339,19.8189509 C13.7708615,14.0031441 9.18140686,6.81487177 4.96535278,2.51015068 L6.2354141,1.27505664 Z" id="Path" fill="#C19C36"></path>
                            <path d="M3.90634394,3.46176004 C5.95068059,5.63972162 8.28474607,8.70934867 10.3128479,12.0437279 C11.8464126,14.5651181 13.2113851,17.2451098 14.1542526,19.817702 L12.2572781,19.817702 C11.3706079,17.5460781 10.1542463,15.1957778 8.79926451,12.9666142 C6.81487177,9.70341829 4.53950135,6.71496527 2.56260159,4.61942655 L3.90634394,3.46176004 Z" id="Path" fill="#C49F41"></path>
                            <path d="M0,6.65252371 L1.41617456,5.56479175 C4.6656333,8.32970399 9.21637413,16.0612178 10.4826889,19.8439275 L8.60070036,19.8439275 C7.82267853,17.798342 4.56697564,10.7074786 0,6.65252371 Z" id="Path" fill="#C49F3F"></path>
                            <path d="M21.2601021,0 C15.379356,5.3787159 10.4614588,13.6434807 8.72433464,19.8189509 L10.5026702,19.8189509 C12.7305851,12.9303981 17.7708677,5.70840734 22.4340034,1.15392001 L21.2601021,0 Z" id="Path" fill="url(#linearGradient-1)"></path>
                            <path d="M27.3344169,5.48112006 L26.2716616,4.18483329 C22.5801166,7.23947437 17.2488563,15.6878173 15.6740802,19.8189509 L17.5373363,19.8189509 C18.4589737,17.5935337 22.2179556,10.2778806 27.3344169,5.48112006 L27.3344169,5.48112006 Z" id="Path" fill="url(#linearGradient-2)"></path>
                            <path d="M12.2535316,19.8189509 L14.1242807,19.8189509 C16.644422,13.5023627 21.3425249,6.73994189 25.2813385,3.34312108 L24.0587327,2.08305041 C19.5204802,5.77459539 14.4901882,13.6359877 12.2535316,19.8189509 Z" id="Path" fill="url(#linearGradient-3)"></path>
                            <path d="M36.3085178,1.27505664 C31.8364533,5.93694344 26.9597676,13.5985228 25.0265769,19.8189509 L26.927298,19.8189509 C28.7730705,14.0031441 33.3625251,6.81487177 37.5785791,2.51015068 L36.3085178,1.27505664 Z" id="Path" fill="#C19C36"></path>
                            <path d="M38.6388368,3.46176004 C36.5945002,5.63972162 34.2604347,8.70934867 32.231084,12.0437279 C30.6975193,14.5651181 29.3325468,17.2451098 28.3896793,19.817702 L30.2866538,19.817702 C31.173324,17.5460781 32.3896793,15.1957778 33.7446674,12.9666142 C35.7290601,9.70341829 38.0031817,6.71496527 39.9813303,4.61942655 L38.6388368,3.46176004 Z" id="Path" fill="#C49F41"></path>
                            <path d="M42.5451807,6.65252371 L41.1290062,5.56479175 C37.8795474,8.32970399 33.3288066,16.0612178 32.0624918,19.8439275 L33.9457292,19.8439275 C34.7212534,17.798342 37.9782051,10.7074786 42.5451807,6.65252371 Z" id="Path" fill="#C49F3F"></path>
                            <path d="M21.2850787,0 C27.1658247,5.3787159 32.0837219,13.6434807 33.8208461,19.8189509 L32.0425105,19.8189509 C29.8145957,12.9303981 24.774313,5.70840734 20.1111774,1.15392001 L21.2850787,0 Z" id="Path" fill="url(#linearGradient-4)"></path>
                            <path d="M15.209515,5.48112006 L16.2722703,4.18483329 C19.9638153,7.23947437 25.2950756,15.6878173 26.8698517,19.8189509 L25.0065956,19.8189509 C24.0849582,17.5935337 20.3272252,10.2778806 15.209515,5.48112006 Z" id="Path" fill="url(#linearGradient-5)"></path>
                            <path d="M28.4196512,19.8189509 L30.2904003,19.8189509 C28.0537437,13.6359877 23.0234517,5.77459539 18.4839503,2.08305041 L17.2613446,3.34312108 C21.2026558,6.74119073 25.8995099,13.5023627 28.4196512,19.8189509 Z" id="Path" fill="url(#linearGradient-6)"></path>
                        </g>
                        <path d="M0.249766237,47.3058235 L1.03652988,47.3058235 L1.15142235,47.3058235 L1.19388261,47.413223 L3.10209666,52.2049882 L5.00281772,47.413223 L5.04527798,47.3058235 L5.16017045,47.3058235 L6.17921669,47.3058235 L6.29535799,47.3058235 L6.33781825,47.4144718 L8.21106503,52.2262183 L10.1455045,47.413223 L10.1879648,47.3070723 L10.3028573,47.3070723 L11.0896209,47.3070723 L11.3393871,47.3070723 L11.2469736,47.5393549 L8.89042919,53.4688054 L8.8467201,53.574956 L8.73182763,53.574956 L7.71278139,53.574956 L7.59664009,53.574956 L7.55417983,53.4663077 L5.66719591,48.6583076 L3.78395848,53.4663077 L3.74274706,53.574956 L3.62785459,53.574956 L2.60880834,53.574956 L2.49391587,53.574956 L2.45145561,53.4675565 L0.0924135075,47.5381061 L0,47.3058235 L0.249766237,47.3058235 L0.249766237,47.3058235 Z M13.064023,47.3058235 L13.863275,47.3058235 L14.033116,47.3058235 L14.033116,47.4756645 L14.033116,53.4063638 L14.033116,53.574956 L13.863275,53.574956 L13.064023,53.574956 L12.894182,53.574956 L12.894182,53.405115 L12.894182,47.4744157 L12.894182,47.3045746 L13.064023,47.3045746 L13.064023,47.3058235 Z M16.5957176,47.3058235 L17.7858537,47.3058235 L17.9032438,47.3532791 L23.0559213,52.2961529 L23.0559213,47.4744157 L23.0559213,47.3045746 L23.2257623,47.3045746 L24.0250143,47.3045746 L24.1948553,47.3045746 L24.1948553,47.4744157 L24.1948553,53.405115 L24.1948553,53.574956 L24.0250143,53.574956 L22.8336293,53.574956 L22.7162392,53.5275004 L17.5635618,48.5846266 L17.5635618,53.405115 L17.5635618,53.574956 L17.3937207,53.574956 L16.5944688,53.574956 L16.4246277,53.574956 L16.4246277,53.405115 L16.4246277,47.4744157 L16.4246277,47.3045746 L16.5957176,47.3045746 L16.5957176,47.3058235 Z M27.6291411,52.5833841 L31.5342362,52.5833841 C31.8352045,52.5833841 32.0824731,52.5484168 32.2785396,52.4772334 C32.4596201,52.4122942 32.5969915,52.3148854 32.6881562,52.1875046 L32.6881562,52.1875046 C32.785565,52.0501331 32.8604949,51.8653061 32.9104482,51.6342724 C32.9628991,51.3932479 32.9903734,51.1035191 32.9903734,50.7663347 L32.9903734,50.1693934 C32.9903734,49.7897487 32.9653967,49.4737944 32.9141947,49.2202817 C32.8654902,48.9780084 32.7943069,48.7931814 32.7018934,48.6670495 L32.7018934,48.6670495 C32.6132263,48.5471617 32.4870944,48.4572458 32.3234975,48.3960531 C32.1486611,48.329865 31.9288669,48.2973954 31.6666123,48.2973954 L27.6291411,48.2973954 L27.6291411,52.5833841 L27.6291411,52.5833841 Z M26.4902071,53.405115 L26.4902071,47.4744157 L26.4902071,47.3045746 L26.6600481,47.3045746 L31.4505645,47.3045746 C31.9563411,47.3045746 32.3834414,47.3582744 32.7318653,47.464425 C33.0940263,47.575571 33.3737645,47.7454121 33.5673334,47.9726993 C33.7596534,48.1974889 33.9020201,48.5196874 33.9956825,48.9405435 C34.0855983,49.3476625 34.1305562,49.8471949 34.1305562,50.4391409 C34.1305562,51.0273404 34.0831006,51.5243752 33.9869406,51.9289965 C33.888283,52.347355 33.7371744,52.6720511 33.5336149,52.8993383 L33.5336149,52.8993383 C33.3300554,53.1278745 33.0465708,53.2989643 32.6869074,53.4113591 C32.3397323,53.5200074 31.9176274,53.5737072 31.4243391,53.5737072 L26.6612969,53.5737072 L26.4914559,53.5737072 L26.4914559,53.405115 L26.4902071,53.405115 Z M37.3275641,51.5618401 L37.3275641,51.9277477 C37.3275641,52.0663679 37.3462965,52.1825092 37.3862591,52.2736739 C37.4224752,52.3573456 37.4749261,52.4247825 37.5448607,52.4759846 L37.5448607,52.4759846 C37.6222882,52.5296843 37.7359319,52.5721446 37.8857916,52.6008677 C38.0468908,52.6320885 38.2467038,52.6483233 38.4864794,52.6483233 L40.9616628,52.6483233 C41.2426498,52.6483233 41.4761812,52.6295908 41.6622571,52.5933747 C41.8358446,52.5596563 41.9644742,52.509703 42.0506436,52.4472615 C42.1318176,52.3860687 42.1930103,52.3011482 42.2354706,52.1900022 C42.2816774,52.0676168 42.3041563,51.9152594 42.3041563,51.7291835 C42.3041563,51.5655866 42.2854239,51.4319617 42.2492077,51.3270599 C42.2167381,51.2346464 42.1692826,51.163463 42.1080898,51.1172562 L42.106841,51.1160074 C42.0406529,51.0648053 41.937,51.0235939 41.7946332,50.9961196 C41.6385293,50.9648988 41.4387163,50.948664 41.1951942,50.948664 L39.0796742,50.948664 C38.548921,50.948664 38.1005906,50.9199409 37.734683,50.8612459 C37.3587848,50.801302 37.0678072,50.7088885 36.8642477,50.5852542 L36.8629989,50.5840053 C36.6481999,50.4516292 36.4883495,50.2543139 36.3834477,49.9908105 C36.2835412,49.7410443 36.2335879,49.4338318 36.2335879,49.0691731 C36.2335879,48.7532188 36.2797947,48.4809736 36.3709594,48.248691 C36.4658705,48.0089154 36.6094861,47.8153466 36.8018061,47.6667357 C36.9916285,47.5206224 37.2626248,47.4119741 37.6147952,47.3420396 C37.9519796,47.2746027 38.3678404,47.2408843 38.8611287,47.2408843 L40.6756805,47.2408843 C41.1252597,47.2408843 41.5123974,47.272105 41.8358446,47.3320489 C42.1692826,47.3957393 42.4352836,47.4931482 42.6363454,47.6230266 L42.6363454,47.6230266 C42.8461491,47.7579004 43.0047506,47.9377321 43.1096524,48.1625217 C43.2120566,48.382316 43.2632587,48.6420728 43.2632587,48.9405435 L43.2632587,49.1965539 L43.2632587,49.3663949 L43.0934176,49.3663949 L42.3428701,49.3663949 L42.173029,49.3663949 L42.173029,49.1965539 C42.173029,49.0579336 42.1642872,48.9342993 42.1455548,48.825651 C42.1280711,48.721998 42.1018457,48.6308334 42.0681272,48.5546547 L42.0681272,48.552157 C42.0456483,48.4972084 41.9994415,48.4510017 41.9320046,48.4110391 C41.8495818,48.3635835 41.7359381,48.3286162 41.5935714,48.3073861 C41.4324722,48.2824095 41.2376545,48.263677 41.0103672,48.2511887 C40.7855776,48.2387004 40.5208254,48.233705 40.2161106,48.233705 L39.0909137,48.233705 C38.7012784,48.233705 38.3815776,48.2499399 38.1318113,48.2836583 C37.8945334,48.3148791 37.7209459,48.3610858 37.6135464,48.4210297 L37.6135464,48.4210297 C37.5236306,48.4697341 37.4549448,48.5496593 37.4074893,48.6570588 C37.3550383,48.7781954 37.3288129,48.9355482 37.3288129,49.1316147 C37.3288129,49.2927139 37.3475454,49.4263388 37.3862591,49.5312406 C37.4199776,49.6224053 37.468682,49.6923399 37.5323724,49.7385466 L37.5323724,49.7385466 C37.6048046,49.787251 37.7221947,49.8272136 37.8882893,49.8559368 C38.0693698,49.8871575 38.3004035,49.9021435 38.5801417,49.9021435 L41.064067,49.9021435 C41.4786789,49.9021435 41.8345958,49.9346131 42.12932,50.0008012 C42.4365324,50.0694869 42.6800545,50.1731399 42.8573885,50.313009 L42.8573885,50.313009 C43.0384691,50.4553757 43.1745917,50.6314609 43.2645075,50.8450111 C43.3531745,51.052317 43.3968836,51.2920926 43.3968836,51.563089 L43.3968836,51.9289965 C43.3968836,52.2099835 43.349428,52.4585009 43.2557657,52.6745487 L43.2557657,52.6757976 C43.1596057,52.8968407 43.0159901,53.0804189 42.8236701,53.2277809 L42.8224213,53.2290298 C42.6338478,53.3713965 42.3678467,53.4762984 42.0269158,53.5462329 C41.6984732,53.612421 41.2988472,53.6461394 40.8280379,53.6461394 L38.5826394,53.6461394 C38.1867599,53.6461394 37.8433313,53.6161674 37.5523537,53.5562235 C37.2513854,53.493782 37.0066144,53.3988708 36.8180409,53.27149 L36.8180409,53.2702412 C36.6232233,53.1366163 36.4758612,52.9592822 36.3784524,52.7382391 C36.28479,52.524689 36.2373344,52.2724251 36.2373344,51.9801986 L36.2373344,51.5668355 L36.2373344,51.3969944 L36.4071755,51.3969944 L37.157723,51.3969944 L37.3275641,51.3969944 L37.3275641,51.5618401 L37.3275641,51.5618401 Z" id="Shape" fill="#B28D15"></path>
                    </g>
                </g>
            </g>
        </g>
    </g>
</svg>